<svg width="192" height="24" viewBox="0 0 192 24" fill="none" xmlns="http://www.w3.org/2000/svg">
<path d="M23 2.9998C22.0424 3.67528 20.9821 4.19191 19.86 4.5298C19.2577 3.83731 18.4573 3.34649 17.567 3.12373C16.6767 2.90096 15.7395 2.957 14.8821 3.28426C14.0247 3.61151 13.2884 4.1942 12.773 4.95352C12.2575 5.71283 11.9877 6.61214 12 7.5298V8.5298C10.2426 8.57537 8.50127 8.18561 6.93101 7.39525C5.36074 6.60488 4.01032 5.43844 3 3.9998C3 3.9998 -1 12.9998 8 16.9998C5.94053 18.3978 3.48716 19.0987 1 18.9998C10 23.9998 21 18.9998 21 7.4998C20.9991 7.22126 20.9723 6.9434 20.92 6.6698C21.9406 5.6633 22.6608 4.39251 23 2.9998V2.9998Z" stroke="white" stroke-width="2" stroke-linecap="round" stroke-linejoin="round"/>
<path d="M74 2H71C69.6739 2 68.4021 2.52678 67.4645 3.46447C66.5268 4.40215 66 5.67392 66 7V10H63V14H66V22H70V14H73L74 10H70V7C70 6.73478 70.1054 6.48043 70.2929 6.29289C70.4804 6.10536 70.7348 6 71 6H74V2Z" stroke="white" stroke-width="2" stroke-linecap="round" stroke-linejoin="round"/>
<path d="M128 8C129.591 8 131.117 8.63214 132.243 9.75736C133.368 10.8826 134 12.4087 134 14V21H130V14C130 13.4696 129.789 12.9609 129.414 12.5858C129.039 12.2107 128.53 12 128 12C127.47 12 126.961 12.2107 126.586 12.5858C126.211 12.9609 126 13.4696 126 14V21H122V14C122 12.4087 122.632 10.8826 123.757 9.75736C124.883 8.63214 126.409 8 128 8V8Z" stroke="white" stroke-width="2" stroke-linecap="round" stroke-linejoin="round"/>
<path d="M118 9H114V21H118V9Z" stroke="white" stroke-width="2" stroke-linecap="round" stroke-linejoin="round"/>
<path d="M116 6C117.105 6 118 5.10457 118 4C118 2.89543 117.105 2 116 2C114.895 2 114 2.89543 114 4C114 5.10457 114.895 6 116 6Z" stroke="white" stroke-width="2" stroke-linecap="round" stroke-linejoin="round"/>
<path d="M172 4H188C189.1 4 190 4.9 190 6V18C190 19.1 189.1 20 188 20H172C170.9 20 170 19.1 170 18V6C170 4.9 170.9 4 172 4Z" stroke="white" stroke-width="2" stroke-linecap="round" stroke-linejoin="round"/>
<path d="M190 6L180 13L170 6" stroke="white" stroke-width="2" stroke-linecap="round" stroke-linejoin="round"/>
</svg>
